<?xml version="1.0" encoding="iso-8859-1"?>
<!-- Generator: Adobe Illustrator 19.0.0, SVG Export Plug-In . SVG Version: 6.00 Build 0)  -->
<svg version="1.1" id="Layer_1" xmlns="http://www.w3.org/2000/svg" xmlns:xlink="http://www.w3.org/1999/xlink" x="0px" y="0px"
	 viewBox="0 0 512 512" style="enable-background:new 0 0 512 512;" xml:space="preserve">
<g>
	<g>
		<path d="M390.4,83.2V6.4H121.6v76.8H0v422.4h512V83.2H390.4z M313.6,44.8H352v76.8h-38.4V44.8z M236.8,44.8h38.4v76.8h-38.4V44.8z
			 M160,44.8h38.4v76.8H160V44.8z M473.6,467.2H38.4V121.6h83.2V160h268.8v-38.4h83.2V467.2z"/>
	</g>
</g>
<g>
	<g>
		<path d="M121.6,236.8v192h268.8v-192H121.6z M198.4,390.4H160V352h38.4V390.4z M198.4,313.6H160v-38.4h38.4V313.6z M275.2,390.4
			h-38.4V352h38.4V390.4z M275.2,313.6h-38.4v-38.4h38.4V313.6z M352,390.4h-38.4V352H352V390.4z M352,313.6h-38.4v-38.4H352V313.6z
			"/>
	</g>
</g>
<g>
</g>
<g>
</g>
<g>
</g>
<g>
</g>
<g>
</g>
<g>
</g>
<g>
</g>
<g>
</g>
<g>
</g>
<g>
</g>
<g>
</g>
<g>
</g>
<g>
</g>
<g>
</g>
<g>
</g>
</svg>
